<?xml version="1.0" encoding="iso-8859-1"?>
<!-- Uploaded to: SVG Repo, www.svgrepo.com, Generator: SVG Repo Mixer Tools -->
<!DOCTYPE svg PUBLIC "-//W3C//DTD SVG 1.1//EN" "http://www.w3.org/Graphics/SVG/1.1/DTD/svg11.dtd">
<svg fill="#000000" height="800px" width="800px" version="1.1" id="Capa_1" xmlns="http://www.w3.org/2000/svg" xmlns:xlink="http://www.w3.org/1999/xlink" 
	 viewBox="0 0 466.021 466.021" xml:space="preserve">
<g>
	<path d="M304.304,365.746H174.909c-4.143,0-7.5,3.358-7.5,7.5s3.357,7.5,7.5,7.5h129.395c4.143,0,7.5-3.358,7.5-7.5
		S308.446,365.746,304.304,365.746z"/>
	<path d="M96.294,306.148c-31.486,0-57.102,25.62-57.102,57.111c0,0.834,0.028,1.661,0.063,2.487H15v-23.421h1.266
		c0.052,0,5.679,0,5.679,0c4.143,0,7.5-3.358,7.5-7.5c0-2.941-1.697-5.48-4.162-6.709l7.255-36.058
		c0.942-4.795,6.211-9.768,11.052-10.433c0.042-0.006,0.083-0.012,0.124-0.018l82.229-12.713c8.117-0.87,16.391-7.186,19.323-14.789
		l15.757-40.86c3.707-9.612,15.995-18.044,26.298-18.044h128.025c3.343,0,8.908,2.353,11.237,4.751l45.918,47.279
		c2.662,2.74,7.192,5.693,10.773,7.022l33.752,12.525c1.923,0.714,4.257,2.412,6.245,4.543c2.823,3.029,7.568,3.195,10.601,0.369
		c3.028-2.825,3.193-7.571,0.368-10.6c-3.608-3.869-7.868-6.843-11.995-8.375l-33.751-12.525c-1.487-0.552-4.129-2.273-5.233-3.411
		l-45.918-47.279c-5.149-5.302-14.605-9.301-21.997-9.301H187.32c-16.616,0-34.314,12.144-40.294,27.647l-15.756,40.86
		c-0.918,2.378-4.438,5.041-6.975,5.277c-0.15,0.014-0.301,0.033-0.45,0.056l-82.369,12.735
		c-11.109,1.563-21.492,11.383-23.65,22.357l-7.684,38.194H7.5c-4.143,0-7.5,3.358-7.5,7.5v38.421c0,4.142,3.357,7.5,7.5,7.5h34.441
		c7.403,22.962,28.964,39.625,54.353,39.625c31.497,0,57.121-25.62,57.121-57.111C153.415,331.768,127.791,306.148,96.294,306.148z
		 M96.294,405.371c-23.215,0-42.102-18.891-42.102-42.111c0-23.22,18.887-42.111,42.102-42.111
		c23.226,0,42.121,18.891,42.121,42.111C138.415,386.479,119.52,405.371,96.294,405.371z"/>
	<path d="M382.919,306.148c-31.497,0-57.121,25.62-57.121,57.111c0,31.491,25.624,57.111,57.121,57.111s57.121-25.62,57.121-57.111
		C440.04,331.768,414.416,306.148,382.919,306.148z M382.919,405.371c-23.226,0-42.121-18.891-42.121-42.111
		c0-23.22,18.896-42.111,42.121-42.111s42.121,18.891,42.121,42.111C425.04,386.479,406.145,405.371,382.919,405.371z"/>
	<path d="M250.665,267.709c0.005,0,105.725,0,105.725,0c4.143,0,7.5-3.358,7.5-7.5s-3.357-7.5-7.5-7.5h-98.225V217.7
		c0-4.142-3.357-7.5-7.5-7.5s-7.5,3.358-7.5,7.5v35.008h-76.944c-4.143,0-7.5,3.358-7.5,7.5s3.357,7.5,7.5,7.5
		C166.221,267.709,250.66,267.709,250.665,267.709z"/>
	<path d="M378.521,89.149h-82.615c-3.639-24.577-24.87-43.498-50.442-43.498h-30c-4.143,0-7.5,3.358-7.5,7.5v12.5H164.6
		c-4.143,0-7.5,3.358-7.5,7.5s3.357,7.5,7.5,7.5h43.365v31.996H164.6c-4.143,0-7.5,3.358-7.5,7.5s3.357,7.5,7.5,7.5h43.365v12.5
		c0,4.142,3.357,7.5,7.5,7.5h30c25.572,0,46.803-18.921,50.442-43.498h82.615c39.977,0,72.5,32.523,72.5,72.5v137
		c0,4.142,3.357,7.5,7.5,7.5s7.5-3.358,7.5-7.5v-137C466.021,128.401,426.77,89.149,378.521,89.149z M245.465,132.646h-22.5V60.651
		h15v49.496c0,4.142,3.357,7.5,7.5,7.5s7.5-3.358,7.5-7.5V61.442c16.261,3.461,28.498,17.929,28.498,35.206
		C281.463,116.498,265.314,132.646,245.465,132.646z"/>
</g>
</svg>